<svg width="615" height="90" viewBox="0 0 615 90" fill="none" xmlns="http://www.w3.org/2000/svg">
<path d="M79.8305 79.2047C79.9517 71.0421 79.9466 62.5954 79.8305 54.4354L65.7764 46.5118C65.717 46.4263 66.0497 46.2402 66.1451 46.1824C70.2118 43.6577 74.7452 41.568 78.8377 39.071C79.0981 38.9126 79.5107 38.6812 79.7016 38.4675C79.7325 35.6863 79.7531 32.8925 79.766 30.0962C79.7789 32.8975 79.7996 35.6888 79.8305 38.4675C80.0445 38.3367 79.9594 37.9897 79.962 37.7785C80.0626 29.797 79.9362 21.8055 79.895 13.8265L55.6806 0.0890351C55.1339 -0.210207 54.7574 0.327926 54.4531 0.483834C53.615 0.921381 52.8388 1.39665 52.0213 1.85431C34.687 11.591 17.3708 21.3553 0.0828896 31.1725L0.0132709 55.5167C-0.0331465 55.733 0.0493732 55.7984 0.149944 55.9442C0.366559 56.2611 1.04735 56.4547 1.35164 56.7212L60.4564 90L79.8305 79.2047ZM43.9886 12.2549C47.3409 10.4468 50.5876 8.41249 53.958 6.63716C54.2906 6.46113 55.2474 5.8878 55.5181 5.9054L71.9602 15.026L72.0943 15.3303L60.5673 21.7476L43.9886 12.2549ZM74.802 19.6077L74.802 35.5128L63.1976 42.1137L63.1976 26.0829L74.802 19.6077ZM60.361 62.4295L8.1002 32.7919L7.88617 32.5002L19.1114 26.2136L19.622 26.2011L72.0943 55.821C72.1794 55.9367 72.0221 56.1278 71.8828 56.1756C68.6981 57.8428 65.6706 59.7866 62.5117 61.4965C61.9933 61.7782 60.851 62.5577 60.361 62.427L60.361 62.4295ZM74.802 60.2191L74.802 76.1242L63.1976 82.7251L63.1976 66.7572L74.802 60.2191Z" fill="white"/>
<path d="M596.41 71.3067L586.53 53.6267L581.763 58.5667V71.3067H566.336V7H581.763V40.28L596.756 24.42H614.263L597.103 42.5333L614.61 71.3067H596.41Z" fill="white"/>
<path d="M547.484 41.4928C545.404 38.4594 542.284 36.6394 538.298 36.6394C532.751 36.6394 528.938 41.2328 528.938 47.9928C528.938 54.8394 532.751 59.3461 538.298 59.3461C542.371 59.3461 545.578 57.6994 547.484 54.0594L558.838 60.5594C555.111 67.7528 547.484 71.8261 537.518 71.8261C523.044 71.8261 513.424 62.3794 513.424 48.0794C513.424 33.5194 523.131 23.8994 537.691 23.8994C547.138 23.8994 554.591 27.9728 558.664 34.9927L547.484 41.4928Z" fill="white"/>
<path d="M490.054 24.4197H505.48V71.3064H490.054V65.413C486.847 69.573 482.08 71.913 476.274 71.913C463.1 71.913 454.434 62.2064 454.434 47.6464C454.434 33.3464 462.927 23.8997 475.84 23.8997C481.82 23.813 486.76 26.2397 490.054 30.4864V24.4197ZM480.087 59.7797C485.634 59.7797 489.447 55.7064 490.054 49.6397V46.5197C489.447 40.3664 485.634 36.3797 480.087 36.3797C474.02 36.3797 469.947 41.1464 469.947 48.0797C469.947 55.013 474.02 59.7797 480.087 59.7797Z" fill="white"/>
<path d="M448.069 57.9595L451.016 68.8795C447.636 70.8729 442.956 71.9995 438.536 71.9995C429.262 71.9995 422.762 66.2795 422.762 56.3129V13.6729H438.016V26.6728H450.236V36.8995H438.016V53.8862C438.016 57.6995 439.749 59.5195 442.609 59.5195C444.256 59.5195 446.076 58.9995 448.069 57.9595Z" fill="white"/>
<path d="M410.23 39.2399C404.424 36.2066 399.137 34.4732 395.324 34.4732C392.724 34.4732 390.904 35.4266 390.904 37.4199C390.904 43.5732 415.517 40.6266 415.43 56.9199C415.43 66.5399 407.024 71.9999 395.584 71.9999C387.697 71.9999 380.157 69.7466 374.437 65.3266L379.29 55.3599C384.664 59.0866 390.73 61.1666 395.93 61.1666C398.79 61.1666 400.87 60.2132 400.87 58.3066C400.87 51.8932 376.69 55.0999 376.69 38.8932C376.69 29.0999 384.924 23.7266 395.93 23.7266C402.69 23.7266 409.537 25.6332 415.43 29.1866L410.23 39.2399Z" fill="white"/>
<path d="M349.936 60.2134C354.096 60.2134 358.169 58.2201 361.636 54.4934L370.302 62.2934C364.842 68.7067 357.649 71.8267 348.809 71.8267C333.642 71.8267 323.502 62.3801 323.502 48.0801C323.502 33.6934 332.949 23.9867 347.942 23.9001C361.982 23.8134 371.256 32.3934 371.602 46.2601L340.229 53.8001C341.962 57.8734 345.429 60.2134 349.936 60.2134ZM348.636 34.8201C343.089 34.8201 339.536 38.5467 339.016 45.3067L356.436 40.9734C355.309 36.8134 352.449 34.8201 348.636 34.8201Z" fill="white"/>
<path d="M300.097 24.4189H315.524V71.3056H300.097V63.6789C296.891 69.1389 291.777 71.9123 285.104 71.9989C274.964 71.9989 268.377 64.9789 268.377 54.0589V24.4189H283.804V49.6389C283.804 54.9256 286.751 58.1323 291.344 58.1323C296.804 58.0456 300.097 53.7123 300.097 47.5589V24.4189Z" fill="white"/>
<path d="M242.305 23.8135C252.532 23.8135 259.292 30.7468 259.292 41.7535V71.3068H243.952V46.1735C243.952 40.8868 240.832 37.5935 235.979 37.5935C230.779 37.6801 227.399 41.2335 226.792 46.5201V71.3068H211.365V24.4201H226.792V32.0468C230.085 26.6735 235.459 23.8135 242.305 23.8135Z" fill="white"/>
<path d="M182.358 60.2134C186.518 60.2134 190.591 58.2201 194.058 54.4934L202.724 62.2934C197.264 68.7067 190.071 71.8267 181.231 71.8267C166.064 71.8267 155.924 62.3801 155.924 48.0801C155.924 33.6934 165.371 23.9867 180.364 23.9001C194.404 23.8134 203.678 32.3934 204.024 46.2601L172.651 53.8001C174.384 57.8734 177.851 60.2134 182.358 60.2134ZM181.058 34.8201C175.511 34.8201 171.958 38.5467 171.438 45.3067L188.858 40.9734C187.731 36.8134 184.871 34.8201 181.058 34.8201Z" fill="white"/>
<path d="M105 24.4189H120.86L130.653 57.0056L140.533 24.4189H155.96L138.366 71.3056H122.506L105 24.4189Z" fill="white"/>
</svg>
