<svg width="80" height="90" viewBox="0 0 80 90" fill="none" xmlns="http://www.w3.org/2000/svg">
<path d="M79.8305 79.2047C79.9517 71.0421 79.9466 62.5954 79.8305 54.4354L65.7764 46.5118C65.717 46.4263 66.0497 46.2402 66.1451 46.1824C70.2118 43.6577 74.7452 41.568 78.8377 39.071C79.0981 38.9126 79.5107 38.6812 79.7016 38.4675C79.7325 35.6863 79.7531 32.8925 79.766 30.0962C79.7789 32.8975 79.7996 35.6888 79.8305 38.4675C80.0445 38.3367 79.9594 37.9897 79.962 37.7785C80.0626 29.797 79.9362 21.8055 79.895 13.8265L55.6806 0.0890351C55.1339 -0.210207 54.7574 0.327926 54.4531 0.483834C53.615 0.921381 52.8388 1.39665 52.0213 1.85431C34.687 11.591 17.3708 21.3553 0.0828896 31.1725L0.0132709 55.5167C-0.0331465 55.733 0.0493732 55.7984 0.149944 55.9442C0.366559 56.2611 1.04735 56.4547 1.35164 56.7212L60.4564 90L79.8305 79.2047ZM43.9886 12.2549C47.3409 10.4468 50.5876 8.41249 53.958 6.63716C54.2906 6.46113 55.2474 5.8878 55.5181 5.9054L71.9602 15.026L72.0943 15.3303L60.5673 21.7476L43.9886 12.2549ZM74.802 19.6077L74.802 35.5128L63.1976 42.1137L63.1976 26.0829L74.802 19.6077ZM60.361 62.4295L8.1002 32.7919L7.88617 32.5002L19.1114 26.2136L19.622 26.2011L72.0943 55.821C72.1794 55.9367 72.0221 56.1278 71.8828 56.1756C68.6981 57.8428 65.6706 59.7866 62.5117 61.4965C61.9933 61.7782 60.851 62.5577 60.361 62.427L60.361 62.4295ZM74.802 60.2191L74.802 76.1242L63.1976 82.7251L63.1976 66.7572L74.802 60.2191Z" fill="white"/>
</svg>
